<svg width="16" height="16" viewBox="0 0 16 16" fill="none" xmlns="http://www.w3.org/2000/svg">
<g id="vuesax/bold/note-text">
<g id="note-text">
<g id="Group">
<path id="Vector" d="M5.83333 2.33337V1.33337C5.83333 1.06004 5.60666 0.833374 5.33333 0.833374C5.05999 0.833374 4.83333 1.06004 4.83333 1.33337V2.37337C4.99999 2.35337 5.15333 2.33337 5.33333 2.33337H5.83333Z" fill="#5F6265"/>
<path id="Vector_2" d="M11.1667 2.37337V1.33337C11.1667 1.06004 10.94 0.833374 10.6667 0.833374C10.3933 0.833374 10.1667 1.06004 10.1667 1.33337V2.33337H10.6667C10.8467 2.33337 11 2.35337 11.1667 2.37337Z" fill="#5F6265"/>
<path id="Vector_3" d="M11.1667 2.37337V3.33337C11.1667 3.60671 10.94 3.83337 10.6667 3.83337C10.3933 3.83337 10.1667 3.60671 10.1667 3.33337V2.33337H5.83333V3.33337C5.83333 3.60671 5.60667 3.83337 5.33333 3.83337C5.06 3.83337 4.83333 3.60671 4.83333 3.33337V2.37337C2.86667 2.55337 2 3.82004 2 5.66671V11.3334C2 13.3334 3 14.6667 5.33333 14.6667H10.6667C13 14.6667 14 13.3334 14 11.3334V5.66671C14 3.82004 13.1333 2.55337 11.1667 2.37337ZM8 11.1667H5.33333C5.06 11.1667 4.83333 10.94 4.83333 10.6667C4.83333 10.3934 5.06 10.1667 5.33333 10.1667H8C8.27333 10.1667 8.5 10.3934 8.5 10.6667C8.5 10.94 8.27333 11.1667 8 11.1667ZM10.6667 7.83337H5.33333C5.06 7.83337 4.83333 7.60671 4.83333 7.33337C4.83333 7.06004 5.06 6.83337 5.33333 6.83337H10.6667C10.94 6.83337 11.1667 7.06004 11.1667 7.33337C11.1667 7.60671 10.94 7.83337 10.6667 7.83337Z" fill="#5F6265"/>
</g>
</g>
</g>
</svg>
