<svg width="41" height="41" viewBox="0 0 41 41" fill="none" xmlns="http://www.w3.org/2000/svg">
<g id="vuesax/bold/color-swatch">
<g id="color-swatch">
<path id="Vector" d="M37.0417 28V33C37.0417 35.3 35.175 37.1667 32.875 37.1667H20.975C19.4917 37.1667 18.7583 35.3834 19.7917 34.3334L29.575 24.3334C29.8917 24.0167 30.325 23.8334 30.7583 23.8334H32.875C35.175 23.8334 37.0417 25.7 37.0417 28Z" fill="#6CCDAB"/>
<path id="Vector_2" d="M30.9917 19.3167L26.475 23.8333L22.375 27.9167C21.325 28.9667 19.525 28.2333 19.525 26.75C19.525 21.4 19.525 12.6 19.525 12.6C19.525 12.15 19.7083 11.7333 20.0083 11.4167L21.5417 9.88333C23.175 8.24999 25.8083 8.24999 27.4417 9.88333L30.975 13.4167C32.625 15.05 32.625 17.6833 30.9917 19.3167Z" fill="#6CCDAB"/>
<path id="Vector_3" d="M12.875 3.83337H7.87501C5.37501 3.83337 3.70834 5.50004 3.70834 8.00004V30.5C3.70834 30.95 3.75834 31.4 3.84168 31.8334C3.89168 32.05 3.94168 32.2667 4.00834 32.4834C4.09168 32.7334 4.17501 32.9834 4.27501 33.2167C4.29168 33.2334 4.29168 33.25 4.29168 33.25C4.30834 33.25 4.30834 33.25 4.29168 33.2667C4.52501 33.7334 4.79168 34.1834 5.10834 34.6C5.29168 34.8167 5.47501 35.0167 5.65834 35.2167C5.84168 35.4167 6.04168 35.5834 6.25834 35.75L6.27501 35.7667C6.69168 36.0834 7.14168 36.35 7.60834 36.5834C7.62501 36.5667 7.62501 36.5667 7.62501 36.5834C7.87501 36.7 8.12501 36.7834 8.39168 36.8667C8.60834 36.9334 8.82501 36.9834 9.04168 37.0334C9.47501 37.1167 9.92501 37.1667 10.375 37.1667C11.0583 37.1667 11.7583 37.0667 12.4083 36.85C12.5917 36.7834 12.775 36.7167 12.9583 36.6334C13.5417 36.4 14.1083 36.0667 14.6083 35.6334C14.7583 35.5167 14.925 35.3667 15.075 35.2167L15.1417 35.15C16.3083 33.95 17.0417 32.3 17.0417 30.5V8.00004C17.0417 5.50004 15.375 3.83337 12.875 3.83337ZM10.375 33C8.99168 33 7.87501 31.8834 7.87501 30.5C7.87501 29.1167 8.99168 28 10.375 28C11.7583 28 12.875 29.1167 12.875 30.5C12.875 31.8834 11.7583 33 10.375 33Z" fill="#6CCDAB"/>
</g>
</g>
</svg>
