<svg width="41" height="41" viewBox="0 0 41 41" fill="none" xmlns="http://www.w3.org/2000/svg">
<g id="vuesax/bold/bucket-circle">
<g id="bucket-circle">
<path id="Vector" d="M20.625 3.83337C11.425 3.83337 3.95831 11.3 3.95831 20.5C3.95831 29.7 11.425 37.1667 20.625 37.1667C29.825 37.1667 37.2916 29.7 37.2916 20.5C37.2916 11.3 29.825 3.83337 20.625 3.83337ZM20.0083 27.5834C18.5916 29 17.1583 29 15.725 27.5834L11.4583 23.3C10.725 22.5667 10.375 21.8334 10.3916 21.0834C10.4083 20.3834 10.775 19.7 11.4583 19.0167L17.4583 13.0167L16.525 12.1C16.2083 11.7834 16.2083 11.2834 16.525 10.9667C16.8416 10.65 17.3416 10.65 17.6583 10.9667L18.575 11.8834L26.4083 19.7167C26.575 19.8834 26.6916 20.1334 26.6916 20.3667C26.7083 20.65 26.625 20.9334 26.4083 21.15L20.0083 27.5834ZM28.3583 30.2667C26.975 30.2667 25.8583 29.15 25.8583 27.7667C25.8583 26.3667 27.5083 24.5167 27.8416 24.15C28.1083 23.85 28.625 23.85 28.9083 24.15C29.2416 24.5 30.8916 26.3667 30.8916 27.7667C30.8583 29.15 29.7416 30.2667 28.3583 30.2667Z" fill="#F2887F"/>
</g>
</g>
</svg>
