<svg width="41" height="41" viewBox="0 0 41 41" fill="none" xmlns="http://www.w3.org/2000/svg">
<g id="vuesax/bold/bubble">
<g id="bubble">
<path id="Vector" d="M26.8583 3.41663C21.9083 3.41663 17.8917 7.43329 17.8917 12.3833C17.8917 17.3333 21.9083 21.35 26.8583 21.35C31.8083 21.35 35.825 17.3333 35.825 12.3833C35.825 7.43329 31.8083 3.41663 26.8583 3.41663Z" fill="#6CCDAB"/>
<path id="Vector_2" d="M11.475 22.2167C8.42499 22.2167 5.92499 24.7 5.92499 27.7667C5.92499 30.8333 8.40832 33.3167 11.475 33.3167C14.525 33.3167 17.025 30.8333 17.025 27.7667C17.025 24.7 14.525 22.2167 11.475 22.2167Z" fill="#6CCDAB"/>
<path id="Vector_3" d="M28.575 28.2C25.9917 28.2 23.8917 30.3 23.8917 32.8833C23.8917 35.4666 25.9917 37.5666 28.575 37.5666C31.1583 37.5666 33.2583 35.4666 33.2583 32.8833C33.2583 30.3 31.1583 28.2 28.575 28.2Z" fill="#6CCDAB"/>
</g>
</g>
</svg>
