<svg width="41" height="41" viewBox="0 0 41 41" fill="none" xmlns="http://www.w3.org/2000/svg">
<g id="vuesax/bold/shapes">
<g id="shapes">
<path id="Vector" d="M17.7417 15.5H32.7917C35.825 15.5 37.7583 18.75 36.2917 21.4166L32.4083 28.4833L28.775 35.1C27.2583 37.85 23.2917 37.85 21.775 35.1L18.125 28.4833L16.375 25.3L14.2417 21.4166C12.775 18.75 14.7083 15.5 17.7417 15.5Z" fill="#6CCDAB"/>
<path id="Vector_2" d="M2.37499 13.8333C2.37499 7.84999 7.22499 2.99999 13.2083 2.99999C18.2917 2.99999 22.5417 6.48333 23.725 11.2167C23.8417 11.7167 23.4583 12.1667 22.9417 12.1667H16.6583C14.3417 12.1667 12.2417 13.3667 11.0583 15.35C9.89166 17.35 9.84166 19.75 10.975 21.7833L11.8083 23.3167C12.125 23.8833 11.675 24.5667 11.0417 24.45C6.10832 23.45 2.37499 19.0833 2.37499 13.8333Z" fill="#6CCDAB"/>
</g>
</g>
</svg>
