<svg width="41" height="41" viewBox="0 0 41 41" fill="none" xmlns="http://www.w3.org/2000/svg">
<g id="vuesax/bold/drop">
<g id="drop">
<path id="Vector" d="M28.025 12.85L10.8917 29.9834C10.0917 30.7834 8.725 30.6 8.24166 29.5834C7.375 27.8 6.875 25.7834 6.875 23.6667C6.84166 14.4667 16.175 6.60004 19.3417 4.18337C19.9583 3.71671 20.7917 3.71671 21.3917 4.18337C22.8417 5.28337 25.5583 7.56671 28.1083 10.5667C28.675 11.2334 28.6417 12.2334 28.025 12.85Z" fill="#F2887F"/>
<path id="Vector_2" d="M33.875 23.6833C33.875 31.1166 27.825 37.1666 20.375 37.1666C17.3917 37.1666 14.6083 36.2 12.3583 34.5333C11.5417 33.9333 11.475 32.7333 12.1917 32.0166L28.975 15.2333C29.7583 14.45 31.075 14.6166 31.6083 15.5833C32.975 18.1 33.8917 20.8333 33.875 23.6833Z" fill="#F2887F"/>
</g>
</g>
</svg>
