<svg width="41" height="41" viewBox="0 0 41 41" fill="none" xmlns="http://www.w3.org/2000/svg">
<g id="vuesax/bold/frame">
<g id="frame">
<path id="Vector" d="M20.875 3.83337C16.5083 3.83337 12.9583 7.38337 12.9583 11.75C12.9583 16.0334 16.3083 19.5 20.675 19.65C20.8083 19.6334 20.9417 19.6334 21.0417 19.65C21.075 19.65 21.0917 19.65 21.125 19.65C21.1417 19.65 21.1417 19.65 21.1583 19.65C25.425 19.5 28.775 16.0334 28.7917 11.75C28.7917 7.38337 25.2417 3.83337 20.875 3.83337Z" fill="#6CCDAB"/>
<path id="Vector_2" d="M29.3417 24.0833C24.6917 20.9833 17.1083 20.9833 12.425 24.0833C10.3083 25.5 9.14166 27.4166 9.14166 29.4666C9.14166 31.5166 10.3083 33.4166 12.4083 34.8166C14.7417 36.3833 17.8083 37.1666 20.875 37.1666C23.9417 37.1666 27.0083 36.3833 29.3417 34.8166C31.4417 33.4 32.6083 31.5 32.6083 29.4333C32.5917 27.3833 31.4417 25.4833 29.3417 24.0833Z" fill="#6CCDAB"/>
</g>
</g>
</svg>
