<svg width="41" height="41" viewBox="0 0 41 41" fill="none" xmlns="http://www.w3.org/2000/svg">
<g id="vuesax/bold/emoji-normal">
<g id="emoji-normal">
<path id="Vector" d="M27.1083 3.83337H13.1417C7.07501 3.83337 3.45834 7.45004 3.45834 13.5167V27.4667C3.45834 33.55 7.07501 37.1667 13.1417 37.1667H27.0917C33.1583 37.1667 36.775 33.55 36.775 27.4834V13.5167C36.7917 7.45004 33.175 3.83337 27.1083 3.83337ZM10.9083 13.3667C11.3917 12.8834 12.1917 12.8834 12.675 13.3667C13.8583 14.55 15.7917 14.55 16.975 13.3667C17.4583 12.8834 18.2583 12.8834 18.7417 13.3667C19.225 13.85 19.225 14.65 18.7417 15.1334C17.6583 16.2167 16.2417 16.75 14.825 16.75C13.4083 16.75 11.9917 16.2167 10.9083 15.1334C10.425 14.6334 10.425 13.85 10.9083 13.3667ZM20.125 31.8C15.6417 31.8 11.9917 28.15 11.9917 23.6667C11.9917 22.5 12.9417 21.5334 14.1083 21.5334H26.1083C27.275 21.5334 28.225 22.4834 28.225 23.6667C28.2583 28.15 24.6083 31.8 20.125 31.8ZM29.3417 15.1334C28.2583 16.2167 26.8417 16.75 25.425 16.75C24.0083 16.75 22.5917 16.2167 21.5083 15.1334C21.025 14.65 21.025 13.85 21.5083 13.3667C21.9917 12.8834 22.7917 12.8834 23.275 13.3667C24.4583 14.55 26.3917 14.55 27.575 13.3667C28.0583 12.8834 28.8583 12.8834 29.3417 13.3667C29.825 13.85 29.825 14.6334 29.3417 15.1334Z" fill="#6CCDAB"/>
</g>
</g>
</svg>
