<svg width="41" height="41" viewBox="0 0 41 41" fill="none" xmlns="http://www.w3.org/2000/svg">
<g id="vuesax/bold/shapes">
<g id="shapes">
<path id="Vector" d="M18.2417 15.5H33.2917C36.325 15.5 38.2583 18.75 36.7917 21.4166L32.9083 28.4833L29.275 35.1C27.7583 37.85 23.7917 37.85 22.275 35.1L18.625 28.4833L16.875 25.3L14.7417 21.4166C13.275 18.75 15.2083 15.5 18.2417 15.5Z" fill="#6CCDAB"/>
<path id="Vector_2" d="M2.87499 13.8333C2.87499 7.84999 7.72499 2.99999 13.7083 2.99999C18.7917 2.99999 23.0417 6.48333 24.225 11.2167C24.3417 11.7167 23.9583 12.1667 23.4417 12.1667H17.1583C14.8417 12.1667 12.7417 13.3667 11.5583 15.35C10.3917 17.35 10.3417 19.75 11.475 21.7833L12.3083 23.3167C12.625 23.8833 12.175 24.5667 11.5417 24.45C6.60832 23.45 2.87499 19.0833 2.87499 13.8333Z" fill="#6CCDAB"/>
</g>
</g>
</svg>
