<svg width="20" height="20" viewBox="0 0 20 20" fill="none" xmlns="http://www.w3.org/2000/svg">
<g id="vuesax/bold/video">
<g id="video">
<path id="Vector" d="M17.625 5.14171C17.2833 4.95837 16.5667 4.76671 15.5917 5.45004L14.3667 6.31671C14.275 3.72504 13.15 2.70837 10.4167 2.70837H5.41667C2.56667 2.70837 1.45833 3.81671 1.45833 6.66671V13.3334C1.45833 15.25 2.5 17.2917 5.41667 17.2917H10.4167C13.15 17.2917 14.275 16.275 14.3667 13.6834L15.5917 14.55C16.1083 14.9167 16.5583 15.0334 16.9167 15.0334C17.225 15.0334 17.4667 14.9417 17.625 14.8584C17.9667 14.6834 18.5417 14.2084 18.5417 13.0167V6.98337C18.5417 5.79171 17.9667 5.31671 17.625 5.14171ZM9.16667 9.48337C8.30833 9.48337 7.6 8.78337 7.6 7.91671C7.6 7.05004 8.30833 6.35004 9.16667 6.35004C10.025 6.35004 10.7333 7.05004 10.7333 7.91671C10.7333 8.78337 10.025 9.48337 9.16667 9.48337Z" fill="white"/>
</g>
</g>
</svg>
