<svg width="154" height="154" viewBox="0 0 154 154" fill="none" xmlns="http://www.w3.org/2000/svg">
<g id="Stars Left">
<g id="Star" filter="url(#filter0_d_109_247)">
<mask id="mask0_109_247" style="mask-type:luminance" maskUnits="userSpaceOnUse" x="2" y="2" width="100" height="100">
<g id="caa09b9e7f">
<path id="Vector" d="M2.66667 3.5C2.66667 3.03976 3.03976 2.66667 3.5 2.66667H100.5C100.96 2.66667 101.333 3.03976 101.333 3.5V100.5C101.333 100.96 100.96 101.333 100.5 101.333H3.5C3.03976 101.333 2.66667 100.96 2.66667 100.5V3.5Z" fill="white" stroke="white" stroke-width="1.33333"/>
</g>
</mask>
<g mask="url(#mask0_109_247)">
<g id="Group">
<path id="Vector_2" d="M94.0689 52.1008C94.0738 52.1019 94.0779 52.1029 94.0812 52.1038C94.088 52.1185 94.0994 52.1505 94.0994 52.1993C94.0994 52.2481 94.088 52.2801 94.0812 52.2947C94.0779 52.2957 94.0738 52.2967 94.0688 52.2977C80.0515 55.2385 70.972 58.4593 64.7141 64.7173C58.4562 70.9752 55.2354 80.0548 52.2928 94.0702C52.2918 94.0751 52.2908 94.0792 52.2898 94.0825C52.2752 94.0893 52.2432 94.1006 52.1944 94.1006C52.1456 94.1006 52.1136 94.0893 52.0989 94.0825C52.098 94.0792 52.097 94.0751 52.096 94.0701C49.1552 80.0547 45.9344 70.9751 39.6765 64.7172C33.4185 58.4593 24.339 55.2385 10.3236 52.2977C10.3186 52.2967 10.3145 52.2956 10.3112 52.2947C10.3044 52.2801 10.293 52.2481 10.293 52.1993C10.293 52.1505 10.3043 52.1185 10.3111 52.1038C10.3144 52.1029 10.3185 52.1019 10.3235 52.1008C24.3389 49.1582 33.4185 45.9374 39.6764 39.6796C45.9343 33.4217 49.1552 24.3421 52.0959 10.3249C52.097 10.3199 52.098 10.3158 52.0989 10.3125C52.1136 10.3057 52.1456 10.2943 52.1944 10.2943C52.2432 10.2943 52.2752 10.3056 52.2898 10.3124C52.2908 10.3157 52.2918 10.3198 52.2928 10.3248C55.2355 24.342 58.4563 33.4216 64.7142 39.6795C70.9721 45.9374 80.0516 49.1582 94.0689 52.1008Z" fill="#C4C5F0" stroke="white" stroke-width="3"/>
</g>
</g>
</g>
<g id="Star_2" filter="url(#filter1_d_109_247)">
<mask id="mask1_109_247" style="mask-type:luminance" maskUnits="userSpaceOnUse" x="72" y="72" width="80" height="80">
<g id="caa09b9e7f_2">
<path id="Vector_3" d="M72.6667 73.5C72.6667 73.0398 73.0398 72.6667 73.5 72.6667H150.5C150.96 72.6667 151.333 73.0398 151.333 73.5V150.5C151.333 150.96 150.96 151.333 150.5 151.333H73.5C73.0398 151.333 72.6667 150.96 72.6667 150.5V73.5Z" fill="white" stroke="white" stroke-width="1.33333"/>
</g>
</mask>
<g mask="url(#mask1_109_247)">
<g id="Group_2">
<path id="Vector_4" d="M143.998 112.032C144.005 112.033 144.01 112.035 144.013 112.036C144.022 112.051 144.04 112.093 144.04 112.159C144.04 112.226 144.022 112.268 144.013 112.283C144.01 112.284 144.005 112.285 143.998 112.287C133.68 114.553 126.793 117.128 121.959 121.962C117.125 126.796 114.55 133.682 112.283 143.999C112.282 144.006 112.28 144.011 112.279 144.014C112.264 144.023 112.222 144.041 112.156 144.041C112.089 144.041 112.047 144.023 112.032 144.014C112.031 144.011 112.03 144.006 112.028 143.999C109.762 133.682 107.187 126.796 102.353 121.962C97.5194 117.128 90.6327 114.553 80.3156 112.287C80.309 112.285 80.3041 112.284 80.3005 112.283C80.2918 112.268 80.2738 112.226 80.2738 112.159C80.2738 112.093 80.2917 112.051 80.3005 112.036C80.304 112.035 80.309 112.033 80.3156 112.032C90.6326 109.764 97.5193 107.19 102.353 102.356C107.187 97.5219 109.762 90.6352 112.028 80.3169C112.029 80.3103 112.031 80.3054 112.032 80.3018C112.047 80.2931 112.089 80.2751 112.156 80.2751C112.222 80.2751 112.264 80.293 112.279 80.3018C112.28 80.3053 112.282 80.3103 112.283 80.3169C114.551 90.6351 117.125 97.5219 121.959 102.356C126.793 107.19 133.68 109.764 143.998 112.032Z" fill="#C4C5F0" stroke="white" stroke-width="3"/>
</g>
</g>
</g>
</g>
<defs>
<filter id="filter0_d_109_247" x="0.792999" y="0.794312" width="102.806" height="102.806" filterUnits="userSpaceOnUse" color-interpolation-filters="sRGB">
<feFlood flood-opacity="0" result="BackgroundImageFix"/>
<feColorMatrix in="SourceAlpha" type="matrix" values="0 0 0 0 0 0 0 0 0 0 0 0 0 0 0 0 0 0 127 0" result="hardAlpha"/>
<feOffset/>
<feGaussianBlur stdDeviation="4"/>
<feComposite in2="hardAlpha" operator="out"/>
<feColorMatrix type="matrix" values="0 0 0 0 1 0 0 0 0 1 0 0 0 0 1 0 0 0 0.8 0"/>
<feBlend mode="normal" in2="BackgroundImageFix" result="effect1_dropShadow_109_247"/>
<feBlend mode="normal" in="SourceGraphic" in2="effect1_dropShadow_109_247" result="shape"/>
</filter>
<filter id="filter1_d_109_247" x="70.7738" y="70.7751" width="82.7661" height="82.766" filterUnits="userSpaceOnUse" color-interpolation-filters="sRGB">
<feFlood flood-opacity="0" result="BackgroundImageFix"/>
<feColorMatrix in="SourceAlpha" type="matrix" values="0 0 0 0 0 0 0 0 0 0 0 0 0 0 0 0 0 0 127 0" result="hardAlpha"/>
<feOffset/>
<feGaussianBlur stdDeviation="4"/>
<feComposite in2="hardAlpha" operator="out"/>
<feColorMatrix type="matrix" values="0 0 0 0 1 0 0 0 0 1 0 0 0 0 1 0 0 0 0.8 0"/>
<feBlend mode="normal" in2="BackgroundImageFix" result="effect1_dropShadow_109_247"/>
<feBlend mode="normal" in="SourceGraphic" in2="effect1_dropShadow_109_247" result="shape"/>
</filter>
</defs>
</svg>
