<svg width="36" height="36" viewBox="0 0 36 36" fill="none" xmlns="http://www.w3.org/2000/svg">
<g id="vuesax/bold/bubble">
<g id="bubble">
<path id="Vector" d="M23.385 2.625C18.93 2.625 15.315 6.24 15.315 10.695C15.315 15.15 18.93 18.765 23.385 18.765C27.84 18.765 31.455 15.15 31.455 10.695C31.455 6.24 27.84 2.625 23.385 2.625Z" fill="#C4C5F0"/>
<path id="Vector_2" d="M9.54001 19.545C6.79501 19.545 4.54501 21.78 4.54501 24.54C4.54501 27.3 6.78001 29.535 9.54001 29.535C12.285 29.535 14.535 27.3 14.535 24.54C14.535 21.78 12.285 19.545 9.54001 19.545Z" fill="#C4C5F0"/>
<path id="Vector_3" d="M24.93 24.9301C22.605 24.9301 20.715 26.8201 20.715 29.1451C20.715 31.4701 22.605 33.3601 24.93 33.3601C27.255 33.3601 29.145 31.4701 29.145 29.1451C29.145 26.8201 27.255 24.9301 24.93 24.9301Z" fill="#C4C5F0"/>
</g>
</g>
</svg>
