<svg width="32" height="32" viewBox="0 0 32 32" fill="none" xmlns="http://www.w3.org/2000/svg">
<g id="vuesax/bold/bubble">
<g id="bubble">
<path id="Vector" d="M20.7867 2.33334C16.8267 2.33334 13.6134 5.54668 13.6134 9.50668C13.6134 13.4667 16.8267 16.68 20.7867 16.68C24.7467 16.68 27.96 13.4667 27.96 9.50668C27.96 5.54668 24.7467 2.33334 20.7867 2.33334Z" fill="#F2887F"/>
<path id="Vector_2" d="M8.48004 17.3733C6.04004 17.3733 4.04004 19.36 4.04004 21.8133C4.04004 24.2667 6.02671 26.2533 8.48004 26.2533C10.92 26.2533 12.92 24.2667 12.92 21.8133C12.92 19.36 10.92 17.3733 8.48004 17.3733Z" fill="#F2887F"/>
<path id="Vector_3" d="M22.16 22.16C20.0934 22.16 18.4134 23.84 18.4134 25.9067C18.4134 27.9733 20.0934 29.6533 22.16 29.6533C24.2267 29.6533 25.9067 27.9733 25.9067 25.9067C25.9067 23.84 24.2267 22.16 22.16 22.16Z" fill="#F2887F"/>
</g>
</g>
</svg>
