<svg width="36" height="36" viewBox="0 0 36 36" fill="none" xmlns="http://www.w3.org/2000/svg">
<g id="vuesax/bold/bucket-circle">
<g id="bucket-circle">
<path id="Vector" d="M18 3C9.72 3 3 9.72 3 18C3 26.28 9.72 33 18 33C26.28 33 33 26.28 33 18C33 9.72 26.28 3 18 3ZM17.445 24.375C16.17 25.65 14.88 25.65 13.59 24.375L9.75 20.52C9.09 19.86 8.775 19.2 8.79 18.525C8.805 17.895 9.135 17.28 9.75 16.665L15.15 11.265L14.31 10.44C14.025 10.155 14.025 9.705 14.31 9.42C14.595 9.135 15.045 9.135 15.33 9.42L16.155 10.245L23.205 17.295C23.355 17.445 23.46 17.67 23.46 17.88C23.475 18.135 23.4 18.39 23.205 18.585L17.445 24.375ZM24.96 26.79C23.715 26.79 22.71 25.785 22.71 24.54C22.71 23.28 24.195 21.615 24.495 21.285C24.735 21.015 25.2 21.015 25.455 21.285C25.755 21.6 27.24 23.28 27.24 24.54C27.21 25.785 26.205 26.79 24.96 26.79Z" fill="#C4C5F0"/>
</g>
</g>
</svg>
