<svg width="33" height="32" viewBox="0 0 33 32" fill="none" xmlns="http://www.w3.org/2000/svg">
<g id="vuesax/bold/bucket-circle">
<g id="bucket-circle">
<path id="Vector" d="M16.6666 2.66669C9.30665 2.66669 3.33331 8.64002 3.33331 16C3.33331 23.36 9.30665 29.3334 16.6666 29.3334C24.0266 29.3334 30 23.36 30 16C30 8.64002 24.0266 2.66669 16.6666 2.66669ZM16.1733 21.6667C15.04 22.8 13.8933 22.8 12.7466 21.6667L9.33331 18.24C8.74665 17.6534 8.46665 17.0667 8.47998 16.4667C8.49331 15.9067 8.78665 15.36 9.33331 14.8134L14.1333 10.0134L13.3866 9.28002C13.1333 9.02669 13.1333 8.62669 13.3866 8.37335C13.64 8.12002 14.04 8.12002 14.2933 8.37335L15.0266 9.10669L21.2933 15.3734C21.4266 15.5067 21.52 15.7067 21.52 15.8934C21.5333 16.12 21.4666 16.3467 21.2933 16.52L16.1733 21.6667ZM22.8533 23.8134C21.7466 23.8134 20.8533 22.92 20.8533 21.8134C20.8533 20.6934 22.1733 19.2134 22.44 18.92C22.6533 18.68 23.0666 18.68 23.2933 18.92C23.56 19.2 24.88 20.6934 24.88 21.8134C24.8533 22.92 23.96 23.8134 22.8533 23.8134Z" fill="#6CCDAB"/>
</g>
</g>
</svg>
