<svg width="36" height="36" viewBox="0 0 36 36" fill="none" xmlns="http://www.w3.org/2000/svg">
<g id="vuesax/bold/drop">
<g id="drop">
<path id="Vector" d="M24.885 11.115L9.46499 26.535C8.74499 27.255 7.51499 27.09 7.07999 26.175C6.29999 24.57 5.84999 22.755 5.84999 20.85C5.81999 12.57 14.22 5.49 17.07 3.315C17.625 2.895 18.375 2.895 18.915 3.315C20.22 4.305 22.665 6.36 24.96 9.06C25.47 9.66 25.44 10.56 24.885 11.115Z" fill="#C4C5F0"/>
<path id="Vector_2" d="M30.15 20.865C30.15 27.555 24.705 33 18 33C15.315 33 12.81 32.13 10.785 30.63C10.05 30.09 9.99001 29.01 10.635 28.365L25.74 13.26C26.445 12.555 27.63 12.705 28.11 13.575C29.34 15.84 30.165 18.3 30.15 20.865Z" fill="#C4C5F0"/>
</g>
</g>
</svg>
