<svg width="32" height="32" viewBox="0 0 32 32" fill="none" xmlns="http://www.w3.org/2000/svg">
<g id="vuesax/bold/drop">
<g id="drop">
<path id="Vector" d="M22.12 9.88002L8.41333 23.5867C7.77333 24.2267 6.67999 24.08 6.29332 23.2667C5.59999 21.84 5.19999 20.2267 5.19999 18.5334C5.17333 11.1734 12.64 4.88002 15.1733 2.94669C15.6667 2.57335 16.3333 2.57335 16.8133 2.94669C17.9733 3.82669 20.1467 5.65335 22.1867 8.05335C22.64 8.58669 22.6133 9.38669 22.12 9.88002Z" fill="#6CCDAB"/>
<path id="Vector_2" d="M26.8 18.5467C26.8 24.4933 21.96 29.3333 16 29.3333C13.6133 29.3333 11.3867 28.56 9.58667 27.2267C8.93334 26.7467 8.88 25.7867 9.45334 25.2133L22.88 11.7867C23.5067 11.16 24.56 11.2933 24.9867 12.0667C26.08 14.08 26.8133 16.2667 26.8 18.5467Z" fill="#6CCDAB"/>
</g>
</g>
</svg>
