<svg width="36" height="36" viewBox="0 0 36 36" fill="none" xmlns="http://www.w3.org/2000/svg">
<g id="vuesax/bold/emoji-normal">
<g id="emoji-normal">
<path id="Vector" d="M24.285 3H11.715C6.255 3 3 6.255 3 11.715V24.27C3 29.745 6.255 33 11.715 33H24.27C29.73 33 32.985 29.745 32.985 24.285V11.715C33 6.255 29.745 3 24.285 3ZM9.705 11.58C10.14 11.145 10.86 11.145 11.295 11.58C12.36 12.645 14.1 12.645 15.165 11.58C15.6 11.145 16.32 11.145 16.755 11.58C17.19 12.015 17.19 12.735 16.755 13.17C15.78 14.145 14.505 14.625 13.23 14.625C11.955 14.625 10.68 14.145 9.705 13.17C9.27 12.72 9.27 12.015 9.705 11.58ZM18 28.17C13.965 28.17 10.68 24.885 10.68 20.85C10.68 19.8 11.535 18.93 12.585 18.93H23.385C24.435 18.93 25.29 19.785 25.29 20.85C25.32 24.885 22.035 28.17 18 28.17ZM26.295 13.17C25.32 14.145 24.045 14.625 22.77 14.625C21.495 14.625 20.22 14.145 19.245 13.17C18.81 12.735 18.81 12.015 19.245 11.58C19.68 11.145 20.4 11.145 20.835 11.58C21.9 12.645 23.64 12.645 24.705 11.58C25.14 11.145 25.86 11.145 26.295 11.58C26.73 12.015 26.73 12.72 26.295 13.17Z" fill="#C4C5F0"/>
</g>
</g>
</svg>
