<svg width="33" height="32" viewBox="0 0 33 32" fill="none" xmlns="http://www.w3.org/2000/svg">
<g id="vuesax/bold/more-circle">
<g id="more-circle">
<path id="Vector" d="M16.6667 2.66669C9.31999 2.66669 3.33333 8.65335 3.33333 16C3.33333 23.3467 9.31999 29.3334 16.6667 29.3334C24.0133 29.3334 30 23.3467 30 16C30 8.65335 24.0133 2.66669 16.6667 2.66669ZM11.3333 17.3334C10.5867 17.3334 10 16.7334 10 16C10 15.2667 10.6 14.6667 11.3333 14.6667C12.0667 14.6667 12.6667 15.2667 12.6667 16C12.6667 16.7334 12.08 17.3334 11.3333 17.3334ZM16.6667 17.3334C15.92 17.3334 15.3333 16.7334 15.3333 16C15.3333 15.2667 15.9333 14.6667 16.6667 14.6667C17.4 14.6667 18 15.2667 18 16C18 16.7334 17.4133 17.3334 16.6667 17.3334ZM22 17.3334C21.2533 17.3334 20.6667 16.7334 20.6667 16C20.6667 15.2667 21.2667 14.6667 22 14.6667C22.7333 14.6667 23.3333 15.2667 23.3333 16C23.3333 16.7334 22.7467 17.3334 22 17.3334Z" fill="#9FA1A3"/>
</g>
</g>
</svg>
