<svg width="22" height="40" viewBox="0 0 22 40" fill="none" xmlns="http://www.w3.org/2000/svg">
<g id="Icon">
<g id="Group">
<g id="Group_2">
<g id="Group_3">
<path id="Vector" d="M8.58592 40C7.05713 40 5.64026 39.841 4.3348 39.523C3.02934 39.2061 1.98016 38.7076 1.1883 38.0272C0.395927 37.3462 0 36.4654 0 35.3849C0 34.8252 0.102512 34.3587 0.307536 33.9853C0.512561 33.6129 0.791854 33.2216 1.14646 32.8116C1.03454 32.4376 0.979096 32.0553 0.979096 31.6651C0.979096 30.8811 1.17418 30.1489 1.56488 29.4684C1.95662 28.788 2.48801 28.1917 3.15905 27.6797C3.83113 27.1666 4.59108 26.7608 5.43942 26.4621C6.28881 26.164 7.16016 26.0144 8.05453 26.0144C6.46977 25.7163 5.08586 25.1431 3.90174 24.2947C2.71762 23.4453 1.80338 22.3778 1.15902 21.0917C0.515699 19.8046 0.194564 18.3406 0.194564 16.7004C0.194564 14.7982 0.628148 13.1334 1.49584 11.7066C2.36301 10.2798 3.57537 9.17051 5.13188 8.37814C6.68944 7.58628 8.50328 7.18983 10.5734 7.18983C11.3182 7.18983 12.0494 7.24579 12.768 7.3572C13.4861 7.46912 14.1624 7.64591 14.7973 7.88859C14.2743 7.31117 13.8914 6.66367 13.6488 5.94504C13.4071 5.22693 13.2957 4.51353 13.314 3.80484C13.3318 3.13433 13.4856 2.50984 13.7743 1.93242C14.064 1.35396 14.484 0.887426 15.0337 0.532818C15.5845 0.178733 16.2419 0.00142828 17.0066 0.00142828C17.902 -0.0179235 18.6473 0.159381 19.243 0.532818C19.8398 0.905209 20.2875 1.37593 20.5861 1.94498C20.8842 2.51402 21.0338 3.10608 21.0338 3.72116C21.0338 4.31845 20.9072 4.88749 20.6552 5.4283C20.4041 5.96805 20.0218 6.41105 19.5087 6.75677C18.9967 7.10144 18.3486 7.27352 17.5651 7.27352C16.9877 7.27352 16.5217 7.171 16.1676 6.96598C15.813 6.76095 15.5379 6.51932 15.3413 6.24003C15.1456 5.95969 15.0013 5.69818 14.9082 5.45549C14.8146 5.21281 14.7309 5.05486 14.6571 4.98059C14.5076 4.83153 14.4045 4.86919 14.3475 5.09356C14.2916 5.31689 14.3193 5.63855 14.4312 6.05801C14.5442 6.47643 14.768 6.92361 15.1028 7.39904C15.4385 7.87499 15.9239 8.30857 16.5589 8.70032C17.8821 9.48276 18.9491 10.5408 19.7597 11.874C20.5715 13.2077 20.9773 14.8165 20.9773 16.7004C20.9773 18.6016 20.5432 20.2706 19.6761 21.7068C18.8099 23.142 17.5976 24.2565 16.04 25.05C14.4835 25.8423 12.6613 26.2383 10.5734 26.2383C10.1811 26.2383 9.67275 26.2524 9.04827 26.2801C8.42326 26.3083 7.80348 26.3878 7.1884 26.5186C6.57333 26.6483 6.05554 26.8722 5.63608 27.1902C5.21609 27.5071 5.00636 27.9449 5.00636 28.504C5.00636 28.8209 5.15542 29.0537 5.45407 29.2027C5.75219 29.3523 6.05972 29.4266 6.37667 29.4266C7.17847 29.4266 7.929 29.3429 8.62776 29.1756C9.32756 29.0071 10.0179 28.8157 10.6989 28.6023C11.3794 28.3879 12.0881 28.1965 12.8245 28.0291C13.5609 27.8607 14.3669 27.7759 15.2429 27.7759C16.2314 27.7759 17.1687 27.9721 18.0547 28.3638C18.9402 28.7561 19.6625 29.3063 20.2221 30.0145C20.7812 30.7226 21.061 31.571 21.061 32.5585C21.061 33.808 20.6928 34.8985 19.9564 35.8305C19.22 36.7635 18.2409 37.5376 17.0191 38.1527C15.7984 38.7688 14.4563 39.2306 12.9918 39.5376C11.5284 39.8457 10.0598 40 8.58592 40ZM10.5734 7.69193C9.82705 7.69193 9.31867 8.07008 9.04827 8.82584C8.77734 9.58056 8.63717 10.6344 8.62776 11.987C8.61939 13.3385 8.61521 14.919 8.61521 16.7276C8.61521 18.5368 8.61939 20.1221 8.62776 21.483C8.63717 22.8444 8.77734 23.903 9.04827 24.6587C9.31867 25.4135 9.82705 25.7906 10.5734 25.7906C11.3375 25.7906 11.8501 25.4135 12.1111 24.6587C12.3715 23.903 12.507 22.8444 12.5169 21.483C12.5264 20.1221 12.5316 18.5368 12.5316 16.7276C12.5316 14.919 12.5264 13.3385 12.5169 11.987C12.507 10.6344 12.3715 9.58056 12.1111 8.82584C11.8501 8.07008 11.3375 7.69193 10.5734 7.69193ZM0.558587 35.4121C0.558587 36.1955 0.805453 36.8535 1.29918 37.3849C1.79396 37.9163 2.44669 38.3352 3.25738 38.6422C4.06911 38.9503 4.94569 39.1741 5.88713 39.3138C6.82856 39.4545 7.74699 39.5251 8.6424 39.5251C9.76062 39.5251 10.8464 39.4126 11.8998 39.1883C12.9542 38.9649 13.905 38.6527 14.7534 38.251C15.6028 37.8504 16.279 37.3891 16.7827 36.8661C17.2859 36.3441 17.5379 35.7949 17.5379 35.2175C17.5379 34.8812 17.3978 34.6197 17.1174 34.433C16.8381 34.2457 16.5118 34.1526 16.1383 34.1526C15.4113 34.1526 14.7168 34.2598 14.0546 34.4748C13.3935 34.6892 12.7037 34.9319 11.9856 35.2028C11.2669 35.4733 10.474 35.7154 9.60685 35.9288C8.74073 36.1432 7.74751 36.251 6.62772 36.251C5.54664 36.251 4.51681 36.0041 3.53772 35.5104C2.55862 35.0167 1.84522 34.331 1.39751 33.4539C0.83788 34.0506 0.558587 34.7034 0.558587 35.4121Z" fill="url(#paint0_linear_212_95)"/>
</g>
</g>
</g>
</g>
<defs>
<linearGradient id="paint0_linear_212_95" x1="21.061" y1="40" x2="-0.777986" y2="39.5706" gradientUnits="userSpaceOnUse">
<stop stop-color="#7E7FB8"/>
<stop offset="1" stop-color="#9D9FE6"/>
</linearGradient>
</defs>
</svg>
