<svg width="154" height="154" viewBox="0 0 154 154" fill="none" xmlns="http://www.w3.org/2000/svg">
<g id="Stars Right">
<g id="Star" filter="url(#filter0_d_109_236)">
<mask id="mask0_109_236" style="mask-type:luminance" maskUnits="userSpaceOnUse" x="2" y="72" width="80" height="80">
<g id="caa09b9e7f">
<path id="Vector" d="M2.66667 73.5C2.66667 73.0398 3.03976 72.6667 3.5 72.6667H80.5C80.9602 72.6667 81.3333 73.0398 81.3333 73.5V150.5C81.3333 150.96 80.9602 151.333 80.5 151.333H3.5C3.03976 151.333 2.66667 150.96 2.66667 150.5V73.5Z" fill="white" stroke="white" stroke-width="1.33333"/>
</g>
</mask>
<g mask="url(#mask0_109_236)">
<g id="Group">
<path id="Vector_2" d="M73.998 112.032C74.0046 112.033 74.0096 112.035 74.0131 112.036C74.0219 112.051 74.0398 112.093 74.0398 112.159C74.0398 112.226 74.0219 112.268 74.0131 112.283C74.0096 112.284 74.0046 112.285 73.998 112.287C63.6797 114.553 56.793 117.128 51.9591 121.962C47.1253 126.796 44.5505 133.682 42.2832 143.999C42.2817 144.006 42.2803 144.011 42.2792 144.014C42.2639 144.023 42.2219 144.041 42.1556 144.041C42.0893 144.041 42.0473 144.023 42.0321 144.014C42.0309 144.011 42.0295 144.006 42.0281 143.999C39.762 133.682 37.1872 126.796 32.3533 121.962C27.5194 117.128 20.6327 114.553 10.3156 112.287C10.309 112.285 10.3041 112.284 10.3005 112.283C10.2918 112.268 10.2738 112.226 10.2738 112.159C10.2738 112.093 10.2917 112.051 10.3005 112.036C10.304 112.035 10.309 112.033 10.3156 112.032C20.6326 109.764 27.5193 107.19 32.3532 102.356C37.1871 97.5219 39.762 90.6352 42.028 80.3169C42.0295 80.3103 42.0309 80.3054 42.032 80.3018C42.0473 80.2931 42.0893 80.2751 42.1556 80.2751C42.222 80.2751 42.2639 80.293 42.2792 80.3018C42.2804 80.3053 42.2817 80.3103 42.2832 80.3169C44.5505 90.6351 47.1253 97.5219 51.9592 102.356C56.7931 107.19 63.6798 109.764 73.998 112.032Z" fill="#C4C5F0" stroke="white" stroke-width="3"/>
</g>
</g>
</g>
<g id="Star_2" filter="url(#filter1_d_109_236)">
<mask id="mask1_109_236" style="mask-type:luminance" maskUnits="userSpaceOnUse" x="52" y="2" width="100" height="100">
<g id="caa09b9e7f_2">
<path id="Vector_3" d="M52.6667 3.5C52.6667 3.03976 53.0398 2.66667 53.5 2.66667H150.5C150.96 2.66667 151.333 3.03976 151.333 3.5V100.5C151.333 100.96 150.96 101.333 150.5 101.333H53.5C53.0398 101.333 52.6667 100.96 52.6667 100.5V3.5Z" fill="white" stroke="white" stroke-width="1.33333"/>
</g>
</mask>
<g mask="url(#mask1_109_236)">
<g id="Group_2">
<path id="Vector_4" d="M144.069 52.1008C144.074 52.1019 144.078 52.1029 144.081 52.1038C144.088 52.1185 144.099 52.1505 144.099 52.1993C144.099 52.2481 144.088 52.2801 144.081 52.2947C144.078 52.2957 144.074 52.2967 144.069 52.2977C130.052 55.2385 120.972 58.4593 114.714 64.7173C108.456 70.9752 105.235 80.0548 102.293 94.0702C102.292 94.0751 102.291 94.0792 102.29 94.0825C102.275 94.0893 102.243 94.1006 102.194 94.1006C102.146 94.1006 102.114 94.0893 102.099 94.0825C102.098 94.0792 102.097 94.0751 102.096 94.0701C99.1552 80.0547 95.9344 70.9751 89.6765 64.7172C83.4185 58.4593 74.339 55.2385 60.3236 52.2977C60.3186 52.2967 60.3145 52.2956 60.3112 52.2947C60.3044 52.2801 60.293 52.2481 60.293 52.1993C60.293 52.1505 60.3043 52.1185 60.3111 52.1038C60.3144 52.1029 60.3185 52.1019 60.3235 52.1008C74.3389 49.1582 83.4185 45.9374 89.6764 39.6796C95.9343 33.4217 99.1552 24.3421 102.096 10.3249C102.097 10.3199 102.098 10.3158 102.099 10.3125C102.114 10.3057 102.146 10.2943 102.194 10.2943C102.243 10.2943 102.275 10.3056 102.29 10.3124C102.291 10.3157 102.292 10.3198 102.293 10.3248C105.235 24.342 108.456 33.4216 114.714 39.6795C120.972 45.9374 130.052 49.1582 144.069 52.1008Z" fill="#C4C5F0" stroke="white" stroke-width="3"/>
</g>
</g>
</g>
</g>
<defs>
<filter id="filter0_d_109_236" x="0.773804" y="70.7751" width="82.7661" height="82.766" filterUnits="userSpaceOnUse" color-interpolation-filters="sRGB">
<feFlood flood-opacity="0" result="BackgroundImageFix"/>
<feColorMatrix in="SourceAlpha" type="matrix" values="0 0 0 0 0 0 0 0 0 0 0 0 0 0 0 0 0 0 127 0" result="hardAlpha"/>
<feOffset/>
<feGaussianBlur stdDeviation="4"/>
<feComposite in2="hardAlpha" operator="out"/>
<feColorMatrix type="matrix" values="0 0 0 0 1 0 0 0 0 1 0 0 0 0 1 0 0 0 0.8 0"/>
<feBlend mode="normal" in2="BackgroundImageFix" result="effect1_dropShadow_109_236"/>
<feBlend mode="normal" in="SourceGraphic" in2="effect1_dropShadow_109_236" result="shape"/>
</filter>
<filter id="filter1_d_109_236" x="50.793" y="0.794312" width="102.806" height="102.806" filterUnits="userSpaceOnUse" color-interpolation-filters="sRGB">
<feFlood flood-opacity="0" result="BackgroundImageFix"/>
<feColorMatrix in="SourceAlpha" type="matrix" values="0 0 0 0 0 0 0 0 0 0 0 0 0 0 0 0 0 0 127 0" result="hardAlpha"/>
<feOffset/>
<feGaussianBlur stdDeviation="4"/>
<feComposite in2="hardAlpha" operator="out"/>
<feColorMatrix type="matrix" values="0 0 0 0 1 0 0 0 0 1 0 0 0 0 1 0 0 0 0.8 0"/>
<feBlend mode="normal" in2="BackgroundImageFix" result="effect1_dropShadow_109_236"/>
<feBlend mode="normal" in="SourceGraphic" in2="effect1_dropShadow_109_236" result="shape"/>
</filter>
</defs>
</svg>
